<?xml version="1.0" standalone="no"?><!DOCTYPE svg PUBLIC "-//W3C//DTD SVG 1.1//EN" "http://www.w3.org/Graphics/SVG/1.1/DTD/svg11.dtd"><svg t="1767749639297" class="icon" viewBox="0 0 1024 1024" version="1.1" xmlns="http://www.w3.org/2000/svg" p-id="16126" xmlns:xlink="http://www.w3.org/1999/xlink" width="200" height="200"><path d="M892.39999999 489.60000031l-155.2000003-108.40000032c-18.79999969-13.2-42.79999969 0-42.79999969 21.1999997L694.4 621.60000031c0 5.59999969 1.99999969 11.20000031 5.20000031 15.99999938 8.80000031 11.59999969 25.60000031 13.99999969 37.59999938 5.20000032l155.2000003-108.40000032c13.2-10.39999969 13.2-31.60000031 0-44.79999938zM870.80000001 792.00000031l-736.00000032 0c-17.59999969 0-31.99999969 14.4-31.99999969 31.99999969s14.4 31.99999969 31.99999969 31.99999969l736.00000031 0c17.59999969 0 31.99999969-14.4 31.99999969-31.9999997s-14.4-31.99999969-31.99999968-31.99999968zM870.8 168.00000031l-736.00000031 0c-17.59999969 0-31.99999969 14.4-31.99999969 31.99999969s14.4 31.99999969 31.99999969 31.99999969l736.00000032 0c17.59999969 0 31.99999969-14.4 31.99999968-31.99999968s-14.4-31.99999969-31.99999969-31.9999997zM598.80000031 584l-464.00000062 0c-17.59999969 0-31.99999969 14.4-31.99999969 31.99999969s14.4 31.99999969 31.99999969 32.00000062l464.00000062 0c17.59999969 0 31.99999969-14.4 31.99999969-32.00000062s-14.4-31.99999969-31.99999969-31.99999969zM598.80000031 375.99999969l-464.40000001 0c-17.59999969 0-31.99999969 14.4-32.00000062 32.00000062s14.4 31.99999969 32.00000063 31.99999969L598.80000031 440c17.59999969 0 31.99999969-14.4 31.99999969-31.99999969l0-0.40000031c0-17.20000031-14.4-31.60000031-31.99999969-31.60000031z" fill="#e6e6e6" p-id="16127"></path></svg>