<?xml version="1.0" standalone="no"?><!DOCTYPE svg PUBLIC "-//W3C//DTD SVG 1.1//EN" "http://www.w3.org/Graphics/SVG/1.1/DTD/svg11.dtd"><svg t="1767799335720" class="icon" viewBox="0 0 1024 1024" version="1.1" xmlns="http://www.w3.org/2000/svg" p-id="6698" xmlns:xlink="http://www.w3.org/1999/xlink" width="200" height="200"><path d="M885.72469 44.385103c47.810207 153.829517 59.497931 299.731862 35.045517 437.72469a706.56 706.56 0 0 1-27.895173 107.325793c4.237241 3.072 7.821241 7.168 10.416552 12.146759l67.442759 130.330483a35.310345 35.310345 0 0 1-0.776828 33.897931l-134.232276 232.51862a35.310345 35.310345 0 0 1-61.934344-1.447724l-64.653242-124.857379a70.550069 70.550069 0 0 1-55.755034-6.391173l-83.685518-48.322206a70.956138 70.956138 0 0 1-4.413793 11.687724c-21.521655 44.720552-49.840552 81.672828-84.956689 110.874482-43.113931 35.87531-95.479172 61.669517-157.095724 77.435587a35.275034 35.275034 0 0 1-42.301794-23.393104c-17.196138-53.530483-20.391724-111.757241-9.586758-174.680276 8.651034-50.193655 25.688276-93.766621 51.129379-130.701241 2.365793-3.425103 4.978759-6.585379 7.785931-9.463172l-81.672827-47.139311a70.550069 70.550069 0 0 1-33.72138-46.256552l-142.018207 6.532414a35.310345 35.310345 0 0 1-32.203034-52.930207l134.249931-232.51862a35.310345 35.310345 0 0 1 28.954483-17.602207l146.590896-6.744276a35.133793 35.133793 0 0 1 19.632552 4.890483 868.352 868.352 0 0 1 80.507586-76.658759C574.552276 106.443034 706.489379 42.937379 846.388966 20.126897a35.133793 35.133793 0 0 1 39.335724 24.240551zM510.481655 783.130483L389.490759 713.268966a17.655172 17.655172 0 0 0-23.375449 5.296551c-20.974345 30.419862-35.204414 66.789517-42.56662 109.638621-7.838897 45.638621-7.256276 87.693241 1.536 126.569931l1.588965 6.585379 2.224552-0.653241c45.991724-13.965241 85.044966-34.498207 117.548138-61.545931l5.755586-4.943448c24.628966-21.768828 45.161931-48.551724 61.634207-80.684138l3.636965-7.309242 0.088276-0.176551a17.655172 17.655172 0 0 0-7.079724-22.916414zM320.653241 336.790069l-104.730482 4.802207-113.293242 196.219586 104.730483-4.819862 67.407448-116.753655 1.942069-3.319173 43.943724-76.129103z m550.435311 317.793103l-113.293242 196.201931 48.198621 93.11338 113.293241-196.219586-48.19862-93.095725z m-31.426207-579.495724l-6.373517 1.235862c-122.173793 24.011034-238.221241 82.061241-348.63669 174.856828-108.861793 91.506759-181.036138 196.06069-217.617655 314.350345a17.655172 17.655172 0 0 0 8.033103 20.51531L679.830069 819.729655a17.655172 17.655172 0 0 0 22.422069-4.025379c89.864828-108.596966 145.072552-222.702345 166.36469-342.845793 21.53931-121.502897 13.117793-250.103172-25.6-386.295173l-3.354483-11.475862z m-133.614345 229.746759c84.44469 48.745931 113.381517 156.724966 64.617931 241.169655-48.728276 84.44469-156.724966 113.381517-241.169655 64.617931-84.44469-48.745931-113.363862-156.724966-64.617931-241.169655 48.745931-84.44469 156.724966-113.363862 241.169655-64.617931z m-26.482759 45.868138a123.586207 123.586207 0 1 0-123.586207 214.05131 123.586207 123.586207 0 0 0 123.586207-214.05131z" fill="#e6e6e6" p-id="6699"></path></svg>